<?xml version="1.0" standalone="no"?>
<!DOCTYPE svg PUBLIC "-//W3C//DTD SVG 20010904//EN"
 "http://www.w3.org/TR/2001/REC-SVG-20010904/DTD/svg10.dtd">
<svg version="1.0" xmlns="http://www.w3.org/2000/svg"
 width="1040.000000pt" height="1040.000000pt" viewBox="0 0 1040.000000 1040.000000"
 preserveAspectRatio="xMidYMid meet">
<metadata>
Created by potrace 1.14, written by Peter Selinger 2001-2017
</metadata>
<g transform="translate(0.000000,1040.000000) scale(0.100000,-0.100000)"
fill="#000000" stroke="none">
<path d="M5267 8515 c-1 -1 -69 -5 -152 -9 -82 -3 -163 -8 -180 -11 -16 -2
-50 -6 -75 -9 -63 -7 -165 -22 -215 -32 -11 -3 -36 -7 -55 -10 -19 -3 -38 -8
-41 -10 -4 -2 -24 -6 -45 -10 -20 -3 -48 -10 -62 -15 -14 -5 -27 -7 -30 -4 -3
2 -10 1 -16 -4 -6 -5 -24 -11 -41 -14 -16 -3 -43 -10 -60 -16 -16 -6 -79 -26
-140 -46 -60 -20 -119 -40 -130 -45 -28 -12 -113 -49 -155 -67 -160 -69 -371
-184 -514 -280 -43 -29 -82 -53 -87 -53 -5 0 -9 -4 -9 -8 0 -5 -29 -29 -65
-53 -36 -24 -65 -47 -65 -51 0 -5 -4 -8 -10 -8 -5 0 -18 -8 -28 -17 -10 -10
-34 -30 -53 -45 -78 -61 -250 -226 -360 -346 -79 -86 -219 -260 -219 -272 0
-5 -3 -10 -7 -10 -5 0 -24 -25 -43 -55 -19 -30 -38 -54 -42 -55 -5 0 -8 -7 -8
-15 0 -8 -4 -15 -10 -15 -5 0 -10 -6 -10 -14 0 -8 -3 -16 -8 -18 -14 -6 -132
-210 -189 -328 -20 -41 -39 -77 -42 -80 -4 -3 -7 -9 -8 -15 -2 -8 -61 -150
-104 -250 -24 -55 -106 -321 -116 -374 -2 -14 -6 -28 -8 -31 -2 -4 -7 -20 -9
-36 -3 -16 -8 -40 -11 -54 -6 -24 -9 -38 -20 -97 -3 -16 -8 -41 -10 -58 -3
-16 -7 -46 -10 -65 -11 -68 -16 -116 -20 -160 -2 -25 -4 -45 -5 -45 -5 0 -10
-152 -11 -310 -1 -167 3 -250 16 -365 2 -25 7 -67 9 -95 3 -27 8 -61 11 -75 3
-14 8 -41 11 -60 9 -63 23 -133 45 -225 28 -123 27 -120 29 -120 1 0 3 -7 5
-15 10 -44 68 -220 91 -275 11 -28 27 -74 29 -85 1 -3 13 -31 28 -63 15 -32
27 -60 27 -62 0 -4 59 -124 115 -235 10 -19 56 -96 102 -170 46 -74 90 -144
96 -155 7 -10 17 -25 24 -32 7 -8 20 -27 30 -43 9 -17 21 -30 25 -30 4 0 8 -6
8 -14 0 -8 4 -16 8 -18 4 -1 23 -23 42 -48 41 -51 67 -83 133 -159 57 -65 302
-306 344 -338 15 -12 39 -31 53 -43 14 -12 35 -30 47 -40 12 -11 55 -43 95
-72 40 -29 78 -56 83 -61 25 -21 178 -117 186 -117 5 0 9 -3 9 -7 0 -5 23 -19
50 -32 28 -14 50 -29 50 -33 0 -4 9 -8 19 -8 11 0 22 -4 25 -9 7 -11 138 -76
149 -73 4 1 7 -1 7 -6 0 -4 15 -13 33 -20 17 -7 39 -17 48 -22 27 -14 181 -76
249 -99 36 -13 74 -27 85 -32 11 -4 40 -14 65 -20 25 -7 50 -14 55 -15 95 -29
312 -80 380 -90 17 -2 39 -5 50 -8 11 -2 45 -7 75 -10 30 -4 73 -10 95 -13 84
-11 126 -13 340 -16 199 -3 290 0 455 18 86 10 106 13 140 20 17 4 41 8 53 10
42 5 135 24 157 30 18 6 96 19 103 17 4 -1 7 2 7 8 0 6 3 9 8 8 6 -2 39 6 122
27 3 1 12 4 20 7 8 3 60 20 115 38 55 18 116 39 135 47 36 15 43 18 170 73 87
38 316 156 330 170 3 3 21 14 40 24 45 25 256 164 273 180 6 6 28 23 47 36 19
13 37 27 40 30 3 3 28 23 55 45 142 114 296 262 429 415 80 91 90 103 121 145
17 22 32 42 35 45 7 6 62 83 112 155 53 77 148 234 148 244 0 5 6 16 14 23 16
17 152 293 171 348 4 12 19 48 37 90 11 25 21 50 22 55 1 6 18 60 38 120 20
61 39 124 44 140 4 17 8 32 9 35 10 38 48 201 51 220 2 14 7 36 10 50 7 29 10
49 19 105 3 22 7 54 10 70 12 77 15 107 22 205 17 250 6 564 -27 775 -5 33
-12 78 -15 100 -4 22 -13 69 -21 105 -9 36 -17 74 -19 85 -2 11 -11 47 -20 80
-18 64 -18 65 -29 110 -4 17 -9 35 -11 40 -1 6 -3 15 -5 20 -1 6 -6 18 -12 28
-5 10 -12 29 -14 43 -2 13 -9 36 -16 51 -6 16 -12 31 -13 36 -2 4 -3 8 -5 10
-1 1 -3 9 -5 17 -8 42 -163 378 -214 465 -10 17 -30 52 -45 79 -15 26 -45 75
-66 108 -22 33 -40 62 -40 64 0 3 -6 12 -12 19 -28 31 -38 44 -38 51 0 7 -157
214 -174 229 -6 6 -33 37 -61 70 -48 58 -254 266 -330 334 -21 18 -72 60 -114
93 -42 33 -77 64 -79 69 -2 5 -8 9 -14 9 -5 0 -35 19 -66 43 -31 24 -72 52
-89 62 -18 11 -33 23 -33 27 0 4 -5 8 -11 8 -6 0 -30 14 -54 30 -24 17 -47 30
-50 30 -4 0 -19 8 -33 18 -15 11 -56 35 -92 54 -36 19 -76 41 -90 49 -14 7
-27 14 -30 14 -3 1 -39 18 -80 37 -138 67 -467 191 -489 186 -3 -1 -15 3 -26
9 -11 6 -33 12 -50 14 -16 2 -36 7 -43 13 -7 5 -15 6 -19 3 -3 -4 -12 -2 -20
5 -7 6 -16 8 -20 5 -3 -4 -14 -2 -25 4 -10 6 -33 12 -51 14 -18 2 -43 6 -57 9
-59 13 -138 28 -170 31 -19 2 -48 6 -65 9 -46 8 -158 17 -275 22 -58 2 -126 6
-153 7 -26 2 -48 3 -50 2z m209 -449 c65 -3 131 -9 146 -11 14 -3 48 -7 75
-10 59 -7 98 -12 98 -15 0 -1 14 -3 30 -5 29 -2 62 -9 115 -21 14 -3 36 -8 50
-11 33 -7 37 -8 90 -22 57 -15 258 -80 288 -92 12 -5 32 -13 45 -18 70 -27
231 -100 287 -129 73 -39 220 -122 235 -134 6 -5 42 -29 80 -54 39 -26 79 -55
91 -65 11 -11 25 -19 31 -19 6 0 13 -7 17 -15 3 -8 11 -15 18 -15 8 0 20 -9
28 -20 8 -11 19 -20 24 -20 5 0 16 -8 25 -18 9 -9 41 -38 71 -63 104 -88 310
-300 310 -319 0 -6 5 -8 10 -5 6 3 10 2 10 -3 0 -6 15 -28 33 -50 57 -69 92
-114 101 -131 5 -9 12 -18 15 -21 14 -12 91 -129 91 -138 0 -6 4 -12 8 -14 10
-4 65 -97 113 -188 19 -36 39 -68 44 -72 6 -4 7 -8 3 -8 -4 0 8 -30 26 -67 41
-82 117 -270 119 -295 1 -10 4 -18 8 -18 4 0 10 -15 14 -32 4 -18 9 -37 11
-43 20 -67 45 -154 48 -170 2 -11 9 -38 14 -60 6 -22 13 -53 16 -70 3 -16 7
-41 11 -55 3 -14 8 -41 10 -60 2 -19 7 -53 11 -75 31 -211 37 -618 9 -786 -2
-13 -6 -46 -10 -72 -3 -26 -10 -71 -16 -100 -5 -29 -12 -65 -15 -82 -11 -65
-67 -281 -77 -293 -5 -6 -7 -12 -4 -12 10 0 -81 -243 -134 -358 -16 -35 -29
-66 -29 -69 0 -3 -9 -18 -21 -34 -11 -16 -17 -29 -13 -29 4 0 1 -8 -7 -17 -8
-10 -21 -31 -29 -48 -25 -50 -103 -180 -112 -183 -4 -2 -8 -8 -8 -14 0 -8 -55
-93 -70 -108 -3 -3 -17 -23 -32 -45 -15 -22 -39 -53 -53 -70 -14 -16 -33 -40
-43 -52 -72 -94 -298 -326 -397 -408 -88 -74 -280 -215 -292 -215 -6 0 -13 -3
-15 -7 -3 -9 -68 -52 -123 -83 -19 -11 -52 -30 -72 -41 -147 -84 -483 -230
-483 -211 0 4 -4 2 -8 -3 -6 -9 -90 -39 -140 -50 -9 -2 -31 -8 -49 -14 -17 -5
-34 -7 -37 -3 -3 3 -6 0 -6 -6 0 -6 -6 -9 -14 -6 -8 3 -17 0 -21 -5 -3 -6 -10
-9 -14 -7 -4 3 -25 1 -46 -5 -54 -15 -134 -30 -172 -32 -7 0 -13 -3 -13 -6 0
-3 -21 -7 -48 -9 -26 -1 -63 -5 -82 -7 -170 -24 -603 -24 -720 -1 -14 3 -47 8
-75 10 -27 3 -69 10 -92 15 -24 4 -43 6 -43 3 0 -2 -7 1 -15 8 -8 7 -15 10
-15 7 0 -3 -28 1 -62 9 -34 8 -72 17 -83 19 -11 2 -20 4 -20 5 0 2 -14 5 -53
14 -61 14 -142 41 -142 49 0 4 -4 6 -9 2 -15 -8 -230 78 -391 157 -80 39 -147
74 -150 77 -3 3 -25 17 -50 30 -48 26 -273 176 -293 195 -7 6 -30 25 -52 41
-22 17 -45 35 -51 41 -6 5 -31 26 -54 45 -122 98 -384 381 -476 514 -79 114
-154 225 -154 228 0 2 -22 42 -48 88 -57 99 -145 279 -145 297 0 6 -4 12 -9
12 -5 0 -6 5 -3 10 3 6 1 10 -4 10 -6 0 -10 3 -9 8 2 4 -2 21 -9 37 -18 48
-26 70 -28 75 -1 3 -7 18 -13 33 -7 16 -12 34 -12 41 0 7 -3 16 -7 20 -4 4
-13 28 -20 54 -43 160 -76 290 -78 307 -1 11 -4 34 -8 50 -3 17 -9 46 -11 65
-3 19 -8 45 -10 57 -3 12 -7 54 -11 95 -3 40 -8 91 -11 113 -7 49 -7 399 0
440 2 17 8 68 11 115 4 47 9 88 11 92 2 3 6 30 9 58 3 29 15 94 26 144 11 50
23 100 25 112 2 11 17 65 34 120 17 54 32 106 34 114 2 8 21 58 41 110 20 52
39 104 43 115 20 68 192 387 266 495 17 25 30 48 28 53 -1 4 2 7 7 7 4 0 21
19 36 42 15 23 32 47 36 52 5 6 30 38 56 71 64 81 72 90 118 140 22 24 47 51
56 62 29 33 203 197 253 238 27 22 61 50 75 62 47 41 51 44 51 38 0 -3 8 3 19
13 31 29 65 53 89 65 12 5 22 14 22 19 0 4 6 8 13 8 7 0 23 9 35 20 12 11 23
20 26 20 5 0 108 62 116 70 3 3 19 12 35 20 17 8 44 23 60 35 17 11 30 18 30
17 0 -2 43 17 95 41 205 97 522 207 641 222 16 2 32 6 36 8 4 3 26 8 48 11 22
4 47 8 55 11 8 2 35 6 60 9 25 4 59 9 75 12 40 7 116 14 245 20 58 3 106 6
107 7 2 3 111 0 239 -7z"/>
<path d="M4220 6109 c-61 -16 -129 -53 -170 -91 -153 -141 -150 -413 8 -628
35 -48 127 -140 141 -140 6 0 11 -4 11 -9 0 -11 160 -91 182 -91 8 0 18 -3 21
-6 13 -14 164 -20 207 -9 14 3 32 8 40 10 8 2 15 4 15 5 0 1 12 4 27 6 23 4
31 -2 59 -43 69 -101 198 -237 310 -325 19 -14 51 -40 73 -57 21 -17 42 -31
47 -31 4 0 14 -6 21 -12 30 -28 195 -120 258 -144 40 -15 119 -63 160 -97 24
-19 61 -74 66 -99 3 -13 7 -36 9 -51 10 -74 105 -66 107 9 1 48 -13 95 -43
144 -28 46 -102 120 -120 120 -5 0 -9 5 -9 10 0 6 -6 10 -14 10 -8 0 -16 3
-18 8 -1 4 -28 18 -58 31 -115 51 -146 66 -210 104 -36 22 -66 44 -68 48 -2 5
-9 9 -16 9 -7 0 -21 8 -32 18 -11 9 -40 33 -64 52 -73 56 -79 62 -144 126 -34
34 -80 83 -102 110 -21 27 -42 51 -46 52 -5 2 -8 10 -8 18 0 8 -4 14 -8 14
-13 0 -34 52 -24 59 31 21 82 121 98 192 7 30 6 146 0 178 -9 43 -39 125 -57
157 -54 97 -50 92 -133 174 -37 38 -82 76 -100 85 -17 9 -49 27 -71 39 -95 54
-243 73 -345 45z"/>
<path d="M5609 5950 c-76 -23 -116 -47 -167 -100 -37 -38 -79 -111 -86 -145
-1 -5 -4 -14 -7 -20 -3 -5 -5 -22 -4 -37 1 -16 -1 -28 -5 -28 -8 0 -5 -44 4
-59 4 -5 2 -12 -4 -16 -6 -4 -8 -11 -4 -16 3 -5 7 -22 10 -37 11 -64 50 -161
90 -221 41 -64 128 -161 143 -161 4 0 16 -9 25 -19 25 -27 150 -87 220 -105
71 -18 195 -15 256 7 24 9 45 15 46 14 1 -1 25 -33 54 -72 77 -102 178 -209
264 -278 22 -18 47 -40 58 -49 10 -10 21 -18 24 -18 3 0 23 -13 44 -30 21 -16
43 -30 49 -30 6 0 11 -4 11 -10 0 -5 7 -10 15 -10 8 0 15 -3 15 -7 0 -5 10
-13 23 -19 12 -6 60 -31 107 -55 47 -24 99 -50 115 -57 58 -24 89 -45 135 -91
44 -44 57 -73 66 -139 4 -34 19 -47 53 -50 42 -3 61 27 54 87 -14 119 -102
216 -268 297 -62 30 -117 54 -124 54 -6 0 -11 5 -11 11 0 5 -4 7 -10 4 -5 -3
-10 -2 -10 3 0 6 -11 13 -25 16 -14 4 -25 11 -25 16 0 6 -5 10 -11 10 -11 0
-150 94 -198 135 -50 41 -188 182 -226 230 -22 28 -43 52 -47 53 -5 2 -8 9 -8
15 0 6 -7 18 -16 28 -15 17 -14 21 18 61 29 36 59 92 64 121 1 4 2 8 4 10 13
17 17 196 4 225 -10 23 -9 21 -18 65 -5 20 -11 37 -15 37 -4 0 -8 6 -8 13 0
19 -84 146 -120 182 -58 57 -91 85 -102 85 -6 0 -11 4 -11 9 0 13 -135 75
-195 91 -76 19 -182 19 -246 0z"/>
<path d="M4413 4714 c-37 -6 -91 -23 -119 -37 -46 -23 -134 -98 -134 -114 0
-3 -6 -14 -13 -22 -62 -74 -70 -276 -16 -406 7 -16 13 -33 13 -36 1 -3 18 -32
38 -65 146 -234 422 -358 643 -289 30 10 57 16 58 14 107 -157 282 -338 416
-428 20 -14 38 -28 39 -33 2 -4 10 -8 18 -8 8 0 14 -4 14 -9 0 -5 15 -14 33
-21 17 -7 37 -18 42 -24 6 -6 55 -33 110 -60 171 -83 185 -90 218 -121 51 -46
77 -89 83 -139 4 -25 12 -51 19 -56 24 -20 56 -19 76 1 43 43 -1 177 -85 259
-38 36 -110 90 -122 90 -3 0 -57 25 -120 55 -115 56 -284 160 -284 177 0 4 -6
8 -14 8 -14 0 -276 250 -276 263 0 4 -16 27 -35 53 -19 25 -35 50 -35 55 0 5
16 31 35 58 51 71 72 142 69 237 -3 88 -7 115 -24 159 -6 17 -10 30 -9 30 7 0
-56 114 -79 145 -88 117 -220 214 -332 245 -91 24 -160 30 -227 19z"/>
</g>
</svg>
